<svg width="20" height="20" viewBox="0 0 20 20" fill="none" xmlns="http://www.w3.org/2000/svg">
<g clip-path="url(#clip0_21_378)">
<path d="M18.3333 1.87491H15.625V0.624913C15.6251 0.459153 15.5594 0.300138 15.4422 0.18285C15.3251 0.0655611 15.1662 -0.000392885 15.0004 -0.000503392C14.8347 -0.000613899 14.6756 0.0651282 14.5584 0.18226C14.4411 0.299392 14.3751 0.45832 14.375 0.62408V1.87491H10.625V0.624913C10.6251 0.542837 10.6089 0.461554 10.5776 0.385704C10.5462 0.309855 10.5002 0.240925 10.4422 0.18285C10.3842 0.124774 10.3154 0.0786911 10.2396 0.0472313C10.1638 0.0157716 10.0825 -0.000448684 10.0004 -0.000503401C9.83466 -0.000613908 9.67564 0.0651281 9.55835 0.18226C9.44106 0.299392 9.37511 0.45832 9.375 0.62408V1.87491H5.625V0.624913C5.62505 0.542837 5.60894 0.461554 5.57758 0.385704C5.54623 0.309855 5.50023 0.240925 5.44224 0.18285C5.38424 0.124774 5.31537 0.0786911 5.23956 0.0472313C5.16375 0.0157716 5.08249 -0.000448684 5.00042 -0.000503401C4.83466 -0.000613908 4.67564 0.0651281 4.55835 0.18226C4.44106 0.299392 4.37511 0.45832 4.375 0.62408V1.87491H1.66667C1.22478 1.87491 0.800987 2.05039 0.48845 2.36277C0.175913 2.67515 0.000220942 3.09886 0 3.54075V18.3324C0 18.7744 0.175595 19.1984 0.488155 19.5109C0.800716 19.8235 1.22464 19.9991 1.66667 19.9991H18.3333C18.7754 19.9991 19.1993 19.8235 19.5118 19.5109C19.8244 19.1984 20 18.7744 20 18.3324V3.54075C19.9998 3.09886 19.8241 2.67515 19.5115 2.36277C19.199 2.05039 18.7752 1.87491 18.3333 1.87491ZM18.75 18.3332C18.75 18.4436 18.7062 18.5495 18.6283 18.6276C18.5503 18.7057 18.4445 18.7497 18.3342 18.7499H1.66667C1.55616 18.7499 1.45018 18.706 1.37204 18.6279C1.2939 18.5497 1.25 18.4438 1.25 18.3332V3.54158C1.25022 3.43122 1.29422 3.32545 1.37233 3.24749C1.45045 3.16953 1.5563 3.12575 1.66667 3.12575H4.375V4.37575C4.37489 4.54151 4.44063 4.70052 4.55776 4.81781C4.6749 4.9351 4.83382 5.00105 4.99958 5.00116C5.16534 5.00127 5.32436 4.93553 5.44165 4.8184C5.55894 4.70127 5.62489 4.54234 5.625 4.37658V3.12575H9.375V4.37575C9.37489 4.54151 9.44063 4.70052 9.55776 4.81781C9.6749 4.9351 9.83382 5.00105 9.99958 5.00116C10.1653 5.00127 10.3244 4.93553 10.4416 4.8184C10.5589 4.70127 10.6249 4.54234 10.625 4.37658V3.12575H14.375V4.37575C14.3749 4.54151 14.4406 4.70052 14.5578 4.81781C14.6749 4.9351 14.8338 5.00105 14.9996 5.00116C15.1653 5.00127 15.3244 4.93553 15.4416 4.8184C15.5589 4.70127 15.6249 4.54234 15.625 4.37658V3.12575H18.3333C18.4436 3.12597 18.5492 3.16985 18.6271 3.24778C18.7051 3.32572 18.7489 3.43136 18.7492 3.54158L18.75 18.3332Z" fill="black"/>
<path d="M4.375 7.5H6.875V9.375H4.375V7.5ZM4.375 10.625H6.875V12.5H4.375V10.625ZM4.375 13.75H6.875V15.625H4.375V13.75ZM8.75 13.75H11.25V15.625H8.75V13.75ZM8.75 10.625H11.25V12.5H8.75V10.625ZM8.75 7.5H11.25V9.375H8.75V7.5ZM13.125 13.75H15.625V15.625H13.125V13.75ZM13.125 10.625H15.625V12.5H13.125V10.625ZM13.125 7.5H15.625V9.375H13.125V7.5Z" fill="black"/>
</g>
<defs>
<clipPath id="clip0_21_378">
<rect width="20" height="20" fill="white"/>
</clipPath>
</defs>
</svg>
