<svg width="34" height="46" viewBox="0 0 34 46" fill="none" xmlns="http://www.w3.org/2000/svg">
<g opacity="0.4">
<path d="M28.75 25.5518C28.75 25.8915 28.6095 26.2174 28.3595 26.4577C28.1094 26.6979 27.7703 26.8329 27.4167 26.8329H6.08333C5.72971 26.8329 5.39057 26.6979 5.14052 26.4577C4.89048 26.2174 4.75 25.8915 4.75 25.5518V12.0873C4.74986 11.892 4.79616 11.6994 4.88535 11.524C4.97455 11.3485 5.10429 11.1951 5.26467 11.0752L15.9313 3.10281C16.1654 2.92787 16.4535 2.83289 16.75 2.83289C17.0465 2.83289 17.3346 2.92787 17.5687 3.10281L28.2353 11.0752C28.3957 11.1951 28.5254 11.3485 28.6146 11.524C28.7038 11.6994 28.7501 11.892 28.75 12.0873V25.5518ZM26.0833 24.2707V12.7124L16.75 5.73806L7.41667 12.7124V24.2707H26.0833Z" fill="black"/>
<path d="M0.852 42V33.6H2.124V37.2H6.192V33.6H7.464V42H6.192V38.244H2.124V42H0.852ZM11.9083 42.144C11.3403 42.144 10.8283 42.016 10.3723 41.76C9.92431 41.496 9.56831 41.132 9.30431 40.668C9.04031 40.196 8.90831 39.648 8.90831 39.024C8.90831 38.4 9.04031 37.856 9.30431 37.392C9.57631 36.92 9.94031 36.556 10.3963 36.3C10.8523 36.036 11.3603 35.904 11.9203 35.904C12.4883 35.904 12.9963 36.036 13.4443 36.3C13.9003 36.556 14.2603 36.92 14.5243 37.392C14.7963 37.856 14.9323 38.4 14.9323 39.024C14.9323 39.648 14.7963 40.196 14.5243 40.668C14.2603 41.132 13.9003 41.496 13.4443 41.76C12.9883 42.016 12.4763 42.144 11.9083 42.144ZM11.9083 41.052C12.2123 41.052 12.4923 40.976 12.7483 40.824C13.0123 40.672 13.2243 40.448 13.3843 40.152C13.5443 39.848 13.6243 39.472 13.6243 39.024C13.6243 38.576 13.5443 38.204 13.3843 37.908C13.2323 37.604 13.0243 37.376 12.7603 37.224C12.5043 37.072 12.2243 36.996 11.9203 36.996C11.6163 36.996 11.3323 37.072 11.0683 37.224C10.8123 37.376 10.6043 37.604 10.4443 37.908C10.2843 38.204 10.2043 38.576 10.2043 39.024C10.2043 39.472 10.2843 39.848 10.4443 40.152C10.6043 40.448 10.8123 40.672 11.0683 40.824C11.3243 40.976 11.6043 41.052 11.9083 41.052ZM16.3079 42V36.048H17.4359L17.5439 36.888C17.7359 36.584 17.9879 36.344 18.2999 36.168C18.6199 35.992 18.9879 35.904 19.4039 35.904C20.3479 35.904 21.0039 36.276 21.3719 37.02C21.5879 36.676 21.8759 36.404 22.2359 36.204C22.6039 36.004 22.9999 35.904 23.4239 35.904C24.1679 35.904 24.7519 36.128 25.1759 36.576C25.5999 37.024 25.8119 37.692 25.8119 38.58V42H24.5399V38.712C24.5399 37.56 24.0999 36.984 23.2199 36.984C22.7719 36.984 22.4039 37.152 22.1159 37.488C21.8359 37.824 21.6959 38.304 21.6959 38.928V42H20.4239V38.712C20.4239 37.56 19.9799 36.984 19.0919 36.984C18.6519 36.984 18.2879 37.152 17.9999 37.488C17.7199 37.824 17.5799 38.304 17.5799 38.928V42H16.3079ZM30.0841 42.144C29.5001 42.144 28.9801 42.016 28.5241 41.76C28.0761 41.496 27.7241 41.132 27.4681 40.668C27.2121 40.204 27.0841 39.664 27.0841 39.048C27.0841 38.424 27.2081 37.876 27.4561 37.404C27.7121 36.932 28.0641 36.564 28.5121 36.3C28.9681 36.036 29.4961 35.904 30.0961 35.904C30.6801 35.904 31.1881 36.036 31.6201 36.3C32.0521 36.556 32.3881 36.9 32.6281 37.332C32.8681 37.764 32.9881 38.24 32.9881 38.76C32.9881 38.84 32.9841 38.928 32.9761 39.024C32.9761 39.112 32.9721 39.212 32.9641 39.324H28.3321C28.3721 39.9 28.5601 40.34 28.8961 40.644C29.2401 40.94 29.6361 41.088 30.0841 41.088C30.4441 41.088 30.7441 41.008 30.9841 40.848C31.2321 40.68 31.4161 40.456 31.5361 40.176H32.8081C32.6481 40.736 32.3281 41.204 31.8481 41.58C31.3761 41.956 30.7881 42.144 30.0841 42.144ZM30.0841 36.948C29.6601 36.948 29.2841 37.076 28.9561 37.332C28.6281 37.58 28.4281 37.956 28.3561 38.46H31.7161C31.6921 37.996 31.5281 37.628 31.2241 37.356C30.9201 37.084 30.5401 36.948 30.0841 36.948Z" fill="black"/>
</g>
</svg>
