<svg width="30" height="30" viewBox="0 0 30 30" fill="none" xmlns="http://www.w3.org/2000/svg">
<g opacity="0.3">
<path d="M10.625 17.5H11.875C12.2292 17.5 12.5263 17.38 12.7663 17.14C13.0063 16.9 13.1258 16.6033 13.125 16.25V15H11.875V16.25H10.625V13.75H13.125C13.125 13.3958 13.005 13.0992 12.765 12.86C12.525 12.6208 12.2283 12.5008 11.875 12.5H10.625C10.2708 12.5 9.97417 12.62 9.735 12.86C9.49583 13.1 9.37583 13.3967 9.375 13.75V16.25C9.375 16.6042 9.495 16.9013 9.735 17.1413C9.975 17.3813 10.2717 17.5008 10.625 17.5ZM14.375 17.5H15.625V12.5H14.375V17.5ZM16.875 17.5H18.125V15.625H20V14.375H18.125V13.75H20.625V12.5H16.875V17.5ZM6.25 26.25C5.5625 26.25 4.97417 26.0054 4.485 25.5163C3.99583 25.0271 3.75083 24.4383 3.75 23.75V6.25C3.75 5.5625 3.995 4.97417 4.485 4.485C4.975 3.99583 5.56333 3.75083 6.25 3.75H23.75C24.4375 3.75 25.0263 3.995 25.5163 4.485C26.0063 4.975 26.2508 5.56333 26.25 6.25V23.75C26.25 24.4375 26.0054 25.0263 25.5163 25.5163C25.0271 26.0063 24.4383 26.2508 23.75 26.25H6.25ZM6.25 23.75H23.75V6.25H6.25V23.75Z" fill="black"/>
</g>
</svg>
