<svg width="24" height="24" viewBox="0 0 24 24" fill="none" xmlns="http://www.w3.org/2000/svg">
<g opacity="0.3" clip-path="url(#clip0_21_397)">
<path fill-rule="evenodd" clip-rule="evenodd" d="M18.71 17.565C19.5069 16.768 19.9546 15.6871 19.9546 14.56C19.9546 13.4329 19.5069 12.352 18.71 11.555L12.17 5.01501C11.9824 4.82751 11.8769 4.57314 11.8768 4.30787C11.8767 4.0426 11.982 3.78816 12.1695 3.60051C12.357 3.41287 12.6114 3.30741 12.8767 3.30731C13.1419 3.30722 13.3964 3.41251 13.584 3.60001L20.124 10.14C21.2963 11.312 21.9549 12.9017 21.9551 14.5593C21.9553 16.2169 21.297 17.8068 20.125 18.979C18.953 20.1513 17.3633 20.8099 15.7057 20.8101C14.0481 20.8103 12.4583 20.152 11.286 18.98L3.332 11.025C2.48795 10.1808 2.01382 9.03592 2.01392 7.84216C2.01401 6.6484 2.48832 5.50357 3.3325 4.65951C4.17669 3.81546 5.3216 3.34133 6.51536 3.34143C7.70912 3.34152 8.85395 3.81583 9.698 4.66001L17.651 12.613C18.1546 13.1317 18.4339 13.8276 18.4285 14.5505C18.4231 15.2734 18.1335 15.9652 17.6223 16.4763C17.111 16.9874 16.4192 17.2768 15.6963 17.282C14.9734 17.2872 14.2775 17.0077 13.759 16.504L6.513 9.25701C6.32536 9.06951 6.2199 8.81514 6.2198 8.54987C6.21971 8.2846 6.325 8.03016 6.5125 7.84251C6.70001 7.65487 6.95438 7.54941 7.21965 7.54931C7.48492 7.54922 7.73936 7.65451 7.927 7.84201L15.174 15.089C15.3148 15.23 15.5059 15.3092 15.7052 15.3093C15.9044 15.3094 16.0955 15.2303 16.2365 15.0895C16.3775 14.9487 16.4567 14.7576 16.4568 14.5584C16.4569 14.3591 16.3778 14.168 16.237 14.027L8.284 6.07401C8.05183 5.84171 7.77617 5.6574 7.47276 5.53163C7.16936 5.40585 6.84415 5.34107 6.51571 5.34098C6.18727 5.34089 5.86203 5.40548 5.55855 5.53109C5.25508 5.65669 4.97931 5.84084 4.747 6.07301C4.27784 6.54192 4.01416 7.17799 4.01397 7.84131C4.01378 8.50462 4.2771 9.14085 4.746 9.61001L12.7 17.564C13.497 18.3609 14.5779 18.8086 15.705 18.8086C16.8321 18.8086 17.913 18.3609 18.71 17.564V17.565Z" fill="black"/>
</g>
<defs>
<clipPath id="clip0_21_397">
<rect width="24" height="24" fill="white"/>
</clipPath>
</defs>
</svg>
