<svg width="30" height="30" viewBox="0 0 30 30" fill="none" xmlns="http://www.w3.org/2000/svg">
<g opacity="0.4">
<path fill-rule="evenodd" clip-rule="evenodd" d="M10 2.5C10.3062 2.50004 10.6017 2.61245 10.8305 2.81589C11.0593 3.01934 11.2054 3.29969 11.2413 3.60375L11.25 3.75V6.25C12.2065 6.24995 13.1269 6.61541 13.8228 7.2716C14.5188 7.9278 14.9376 8.82513 14.9937 9.78L15 10V17.5C15.0001 18.4565 14.6346 19.3769 13.9784 20.0728C13.3222 20.7688 12.4249 21.1876 11.47 21.2438L11.25 21.25V26.25C11.2496 26.5686 11.1277 26.875 10.9089 27.1067C10.6902 27.3384 10.3913 27.4778 10.0733 27.4965C9.7552 27.5151 9.44203 27.4117 9.19771 27.2072C8.95339 27.0027 8.79638 26.7126 8.75875 26.3963L8.75 26.25V21.25C7.79349 21.2501 6.87311 20.8846 6.17717 20.2284C5.48124 19.5722 5.06237 18.6749 5.00625 17.72L5 17.5V10C4.99995 9.04349 5.36541 8.12311 6.0216 7.42717C6.6778 6.73124 7.57513 6.31237 8.53 6.25625L8.75 6.25V3.75C8.75 3.41848 8.8817 3.10054 9.11612 2.86612C9.35054 2.6317 9.66848 2.5 10 2.5ZM21.25 2.5C21.5562 2.50004 21.8517 2.61245 22.0805 2.81589C22.3093 3.01934 22.4554 3.29969 22.4912 3.60375L22.5 3.75V8.75C23.4565 8.74995 24.3769 9.11541 25.0728 9.7716C25.7688 10.4278 26.1876 11.3251 26.2438 12.28L26.25 12.5V20C26.2501 20.9565 25.8846 21.8769 25.2284 22.5728C24.5722 23.2688 23.6749 23.6876 22.72 23.7438L22.5 23.75V26.25C22.4996 26.5686 22.3777 26.875 22.1589 27.1067C21.9402 27.3384 21.6413 27.4778 21.3233 27.4965C21.0052 27.5151 20.692 27.4117 20.4477 27.2072C20.2034 27.0027 20.0464 26.7126 20.0087 26.3963L20 26.25V23.75C19.0435 23.7501 18.1231 23.3846 17.4272 22.7284C16.7312 22.0722 16.3124 21.1749 16.2563 20.22L16.25 20V12.5C16.2499 11.5435 16.6154 10.6231 17.2716 9.92717C17.9278 9.23124 18.8251 8.81237 19.78 8.75625L20 8.75V3.75C20 3.41848 20.1317 3.10054 20.3661 2.86612C20.6005 2.6317 20.9185 2.5 21.25 2.5ZM22.5 11.25H20C19.6938 11.25 19.3983 11.3624 19.1695 11.5659C18.9407 11.7693 18.7946 12.0497 18.7587 12.3538L18.75 12.5V20C18.75 20.3062 18.8624 20.6017 19.0659 20.8305C19.2693 21.0593 19.5497 21.2054 19.8538 21.2412L20 21.25H22.5C22.8062 21.25 23.1017 21.1376 23.3305 20.9341C23.5593 20.7307 23.7054 20.4503 23.7412 20.1463L23.75 20V12.5C23.75 12.1938 23.6376 11.8983 23.4341 11.6695C23.2307 11.4407 22.9503 11.2946 22.6463 11.2587L22.5 11.25ZM11.25 8.75H8.75C8.44383 8.75004 8.14833 8.86244 7.91954 9.06589C7.69074 9.26934 7.54457 9.54969 7.50875 9.85375L7.5 10V17.5C7.50004 17.8062 7.61244 18.1017 7.81589 18.3305C8.01934 18.5593 8.29969 18.7054 8.60375 18.7412L8.75 18.75H11.25C11.5562 18.75 11.8517 18.6376 12.0805 18.4341C12.3093 18.2307 12.4554 17.9503 12.4913 17.6462L12.5 17.5V10C12.5 9.69383 12.3876 9.39833 12.1841 9.16954C11.9807 8.94074 11.7003 8.79457 11.3962 8.75875L11.25 8.75Z" fill="black"/>
</g>
</svg>
