<svg width="30" height="30" viewBox="0 0 30 30" fill="none" xmlns="http://www.w3.org/2000/svg">
<path d="M27.75 25.5518C27.75 25.8915 27.6095 26.2174 27.3595 26.4577C27.1094 26.6979 26.7703 26.8329 26.4167 26.8329H5.08333C4.72971 26.8329 4.39057 26.6979 4.14052 26.4577C3.89048 26.2174 3.75 25.8915 3.75 25.5518V12.0873C3.74986 11.892 3.79616 11.6994 3.88535 11.524C3.97455 11.3485 4.10429 11.1951 4.26467 11.0752L14.9313 3.10281C15.1654 2.92787 15.4535 2.83289 15.75 2.83289C16.0465 2.83289 16.3346 2.92787 16.5687 3.10281L27.2353 11.0752C27.3957 11.1951 27.5254 11.3485 27.6146 11.524C27.7038 11.6994 27.7501 11.892 27.75 12.0873V25.5518ZM25.0833 24.2707V12.7124L15.75 5.73806L6.41667 12.7124V24.2707H25.0833Z" fill="black"/>
</svg>
