<svg width="30" height="30" viewBox="0 0 30 30" fill="none" xmlns="http://www.w3.org/2000/svg">
<g opacity="0.4">
<path d="M21.25 3.52467C22.1021 3.68682 22.6081 3.86621 23.044 4.40441C23.5925 5.0783 23.5638 5.80624 23.5051 7.26212C23.2981 12.498 22.1251 19.1001 15.5011 19.1001C8.87712 19.1001 7.70297 12.4992 7.49367 7.26212C7.43617 5.80624 7.40742 5.07715 7.95367 4.40441C8.50107 3.73052 9.15542 3.62012 10.4653 3.39932C12.1295 3.12657 13.8136 2.99309 15.5 3.00028C16.3257 3.00028 17.0939 3.02903 17.8 3.07847" stroke="black" stroke-width="1.5" stroke-linecap="round"/>
<path d="M23.55 6.45023L24.6413 6.81362C25.7798 7.19312 26.3491 7.38286 26.6745 7.83481C27 8.28675 27 8.88705 27 10.0865V10.1704C27 11.1594 27 11.6551 26.7619 12.0599C26.5239 12.4647 26.0904 12.705 25.2256 13.1868L21.825 15.0751M7.45 6.45023L6.35865 6.81362C5.22015 7.19312 4.6509 7.38286 4.32545 7.83481C4 8.28675 4 8.8882 4 10.0865V10.1704C4 11.1594 4 11.6551 4.23805 12.0599C4.4761 12.4647 4.90965 12.705 5.77445 13.1868L9.175 15.0751" stroke="black" stroke-width="1.5"/>
<path d="M15.5 20.2501V22.55" stroke="black" stroke-width="1.5" stroke-linecap="round"/>
<path d="M19.525 26H11.475L11.866 24.0496C11.9181 23.789 12.0588 23.5545 12.2643 23.3859C12.4697 23.2174 12.7272 23.1252 12.993 23.125H18.007C18.2727 23.1252 18.5302 23.2174 18.7357 23.3859C18.9411 23.5545 19.0819 23.789 19.134 24.0496L19.525 26Z" stroke="black" stroke-width="1.5" stroke-linecap="round" stroke-linejoin="round"/>
<path d="M22.4 26H8.59998" stroke="black" stroke-width="1.5" stroke-linecap="round"/>
</g>
</svg>
