<svg width="26" height="26" viewBox="0 0 26 26" fill="none" xmlns="http://www.w3.org/2000/svg">
<g opacity="0.3">
<path d="M13 3.25001C11.7197 3.25001 10.4518 3.5022 9.26888 3.99218C8.08595 4.48217 7.01112 5.20035 6.10575 6.10572C5.20038 7.01109 4.4822 8.08592 3.99221 9.26885C3.50223 10.4518 3.25004 11.7196 3.25004 13C3.25004 14.2804 3.50223 15.5482 3.99221 16.7312C4.4822 17.9141 5.20038 18.9889 6.10575 19.8943C7.01112 20.7997 8.08595 21.5179 9.26888 22.0078C10.4518 22.4978 11.7197 22.75 13 22.75C15.5859 22.75 18.0658 21.7228 19.8943 19.8943C21.7228 18.0658 22.75 15.5859 22.75 13C22.75 10.4141 21.7228 7.9342 19.8943 6.10572C18.0658 4.27724 15.5859 3.25001 13 3.25001ZM1.08337 13C1.08337 6.41876 6.41879 1.08334 13 1.08334C19.5813 1.08334 24.9167 6.41876 24.9167 13C24.9167 19.5813 19.5813 24.9167 13 24.9167C6.41879 24.9167 1.08337 19.5813 1.08337 13ZM9.75004 8.66668V13H7.58337V8.66668H9.75004ZM18.4167 8.66668V13H16.25V8.66668H18.4167ZM8.66671 15.1667H17.3334V17.3333H8.66671V15.1667Z" fill="black"/>
</g>
</svg>
