<svg width="27" height="27" viewBox="0 0 27 27" fill="none" xmlns="http://www.w3.org/2000/svg">
<path d="M22.3174 20.9937L25.9793 24.6537C26.1501 24.8306 26.2446 25.0674 26.2424 25.3132C26.2403 25.559 26.1417 25.7941 25.9679 25.968C25.794 26.1418 25.5589 26.2404 25.3131 26.2425C25.0673 26.2446 24.8305 26.1501 24.6537 25.9794L20.9918 22.3175C18.5988 24.3677 15.5048 25.4114 12.3589 25.2295C9.21307 25.0477 6.2599 23.6545 4.11913 21.3422C1.97835 19.0299 0.81637 15.9783 0.877016 12.8278C0.937661 9.67726 2.21622 6.67266 4.44439 4.44449C6.67257 2.21631 9.67717 0.937753 12.8277 0.877107C15.9782 0.816462 19.0298 1.97844 21.3421 4.11922C23.6544 6.25999 25.0476 9.21316 25.2294 12.359C25.4113 15.5049 24.3676 18.5989 22.3174 20.9919V20.9937ZM13.0624 23.375C15.7975 23.375 18.4205 22.2885 20.3544 20.3545C22.2884 18.4206 23.3749 15.7975 23.3749 13.0625C23.3749 10.3275 22.2884 7.70443 20.3544 5.77046C18.4205 3.83649 15.7975 2.75 13.0624 2.75C10.3274 2.75 7.70434 3.83649 5.77037 5.77046C3.8364 7.70443 2.74991 10.3275 2.74991 13.0625C2.74991 15.7975 3.8364 18.4206 5.77037 20.3545C7.70434 22.2885 10.3274 23.375 13.0624 23.375Z" fill="white"/>
</svg>
